<?xml version="1.0" encoding="UTF-8"?><svg id="Layer_1" xmlns="http://www.w3.org/2000/svg" xmlns:xlink="http://www.w3.org/1999/xlink" viewBox="0 0 1014.3 113.96"><defs><style>.cls-1{fill:url(#linear-gradient);}.cls-1,.cls-2,.cls-3,.cls-4{stroke-width:0px;}.cls-2{fill:#058faf;}.cls-3{fill:none;}.cls-5{clip-path:url(#clippath);}.cls-4{fill:#fff;}</style><clipPath id="clippath"><polygon class="cls-3" points="131.83 61.4 131.83 61.4 123.7 75.56 115.56 89.71 107.37 75.59 99.17 61.46 82.81 33.25 74.71 47.34 66.57 61.5 58.44 75.66 50.3 89.82 42.11 75.69 33.91 61.57 42.05 47.41 50.18 33.25 58.32 19.09 66.46 4.93 99.08 4.93 99.1 4.96 107.25 19.03 115.44 33.15 115.45 33.15 123.64 47.27 131.83 61.4 131.83 61.4"/></clipPath><linearGradient id="linear-gradient" x1="-591.61" y1="-1021.85" x2="-592.06" y2="-1021.85" gradientTransform="translate(-237750.34 -137688.44) rotate(-90) scale(232.75 -232.75)" gradientUnits="userSpaceOnUse"><stop offset=".14" stop-color="#0cf"/><stop offset=".15" stop-color="#00c8fa"/><stop offset=".28" stop-color="#01b3df"/><stop offset=".42" stop-color="#03a3c9"/><stop offset=".57" stop-color="#0497ba"/><stop offset=".74" stop-color="#0491b1"/><stop offset="1" stop-color="#058faf"/></linearGradient></defs><path class="cls-4" d="M249.18,66.39c0,14.65-11.62,23.12-33.89,23.12h-43.82V4.78h41.4c21.18,0,32.08,8.84,32.08,22.03,0,8.47-4.36,15.01-11.26,18.64,9.44,3.03,15.49,10.29,15.49,20.94ZM190.96,19.55v19.97h19.49c9.56,0,14.77-3.39,14.77-10.05s-5.21-9.93-14.77-9.93h-19.49ZM229.45,64.33c0-7.14-5.45-10.53-15.62-10.53h-22.88v20.94h22.88c10.17,0,15.62-3.15,15.62-10.41Z"/><path class="cls-4" d="M320.35,51.69v38.13h-17.67v-9.08c-3.51,5.93-10.29,9.08-19.85,9.08-15.25,0-24.33-8.47-24.33-19.73s8.11-19.49,27.96-19.49h15.01c0-8.11-4.84-12.83-15.01-12.83-6.9,0-14.04,2.3-18.76,6.05l-6.78-13.19c7.14-5.08,17.67-7.87,28.08-7.87,19.85,0,31.35,9.2,31.35,28.93ZM301.47,68.27v-6.66h-12.95c-8.84,0-11.62,3.27-11.62,7.63,0,4.72,3.99,7.87,10.65,7.87,6.29,0,11.74-2.91,13.92-8.84Z"/><path class="cls-4" d="M400.97,24.39l-29.41,69.12c-6.29,15.74-15.25,20.46-26.99,20.46-6.66,0-13.92-2.18-18.16-5.93l6.9-13.44c2.9,2.54,6.9,4.12,10.65,4.12,5.21,0,8.11-2.3,10.65-8.11l.24-.61-28.2-65.61h19.49l18.28,44.18,18.4-44.18h18.16Z"/><path class="cls-4" d="M464.03,89.82l-16.34-23.6h-18.04v23.6h-19.61V5.08h36.68c22.64,0,36.8,11.74,36.8,30.75,0,12.71-6.42,22.03-17.43,26.75l19,27.24h-21.06ZM445.63,21.06h-15.98v29.54h15.98c11.98,0,18.04-5.57,18.04-14.77s-6.05-14.77-18.04-14.77Z"/><path class="cls-4" d="M492.83,55.98c0-19.61,15.13-33.53,35.83-33.53s35.71,13.92,35.71,33.53-15.01,33.53-35.71,33.53-35.83-13.92-35.83-33.53ZM545.25,55.98c0-11.26-7.14-18.04-16.58-18.04s-16.7,6.78-16.7,18.04,7.26,18.04,16.7,18.04,16.58-6.78,16.58-18.04Z"/><path class="cls-4" d="M572.12,56.29c0-19.61,15.13-33.53,36.31-33.53,13.68,0,24.45,5.93,29.17,16.58l-14.65,7.87c-3.51-6.17-8.72-8.96-14.65-8.96-9.56,0-17.07,6.66-17.07,18.04s7.5,18.04,17.07,18.04c5.93,0,11.14-2.66,14.65-8.96l14.65,7.99c-4.72,10.41-15.49,16.46-29.17,16.46-21.18,0-36.31-13.92-36.31-33.53Z"/><path class="cls-4" d="M676.1,64.28l-9.08,8.96v16.58h-18.88V0h18.88v50.84l27.6-26.15h22.52l-27.11,27.6,29.54,37.52h-22.88l-20.58-25.54Z"/><g class="cls-5"><rect class="cls-1" x="33.69" y="4.68" width="98.36" height="85.4" transform="translate(-.31 .55) rotate(-.38)"/></g><polygon class="cls-2" points="82.87 60.69 91.28 75.25 99.69 89.82 82.87 89.82 66.06 89.82 74.46 75.25 82.87 60.69"/><path class="cls-4" d="M752.05,17.16h7.68v66.01h40.69v6.64h-48.37V17.16Z"/><path class="cls-4" d="M852.83,55.98v33.83h-7.06v-8.51c-3.32,5.6-9.76,9.03-18.79,9.03-12.35,0-19.93-6.44-19.93-15.88,0-8.41,5.4-15.46,21.07-15.46h17.33v-3.32c0-9.34-5.29-14.43-15.46-14.43-7.06,0-13.7,2.49-18.16,6.43l-3.32-5.5c5.5-4.67,13.6-7.37,22.21-7.37,14.12,0,22.11,7.06,22.11,21.17ZM845.46,73.42v-8.93h-17.13c-10.59,0-14.01,4.15-14.01,9.76,0,6.33,5.09,10.28,13.8,10.28s14.43-3.94,17.33-11.11Z"/><path class="cls-4" d="M928.18,62.52c0,16.5-11.62,27.82-27.19,27.82-9.03,0-16.61-3.94-21.07-11.31v10.79h-7.06V12.81h7.37v32.8c4.57-7.06,12.04-10.79,20.76-10.79,15.57,0,27.19,11.21,27.19,27.71ZM920.81,62.52c0-12.77-8.82-21.28-20.34-21.28s-20.34,8.51-20.34,21.28,8.72,21.28,20.34,21.28,20.34-8.51,20.34-21.28Z"/><path class="cls-4" d="M935.65,83.59l3.32-5.81c4.36,3.42,11.73,6.12,19.41,6.12,10.38,0,14.63-3.53,14.63-8.93,0-14.22-35.39-3.01-35.39-24.6,0-8.93,7.68-15.57,21.59-15.57,7.06,0,14.74,1.97,19.3,5.09l-3.22,5.92c-4.77-3.32-10.48-4.67-16.09-4.67-9.86,0-14.22,3.84-14.22,9.03,0,14.74,35.39,3.63,35.39,24.6,0,9.45-8.3,15.57-22.52,15.57-9.03,0-17.75-2.91-22.21-6.75Z"/></svg>